<svg width="16" height="16" viewBox="0 0 16 16" fill="none" xmlns="http://www.w3.org/2000/svg">
<rect y="-0.000244141" width="16" height="16" rx="3" fill="#034070"/>
<path d="M13.94 8.5931C13.94 8.53039 13.904 8.46769 13.886 8.40498C13.8582 8.29436 13.8221 8.18577 13.778 8.08005C13.748 8.01165 13.706 7.94324 13.67 7.86913C13.634 7.79503 13.58 7.69812 13.526 7.61831C13.472 7.53851 13.4 7.4986 13.4 7.453C13.4 7.40739 13.28 7.31048 13.214 7.24208C13.148 7.17367 13.088 7.12807 13.022 7.07106L12.8 6.88295L12.584 6.74613C12.4992 6.69683 12.411 6.65303 12.32 6.61502L12.086 6.51241C11.988 6.47793 11.8878 6.44937 11.786 6.42691C11.7054 6.40437 11.6232 6.38723 11.54 6.3756H11.432C11.2009 5.69112 10.7487 5.09322 10.1395 4.66681C9.53043 4.2404 8.7954 4.00716 8.03883 4.00022C7.28226 3.99328 6.54262 4.21298 5.92495 4.62814C5.30728 5.04329 4.84298 5.63278 4.598 6.3129H4.49C4.40684 6.32452 4.32464 6.34166 4.244 6.3642C4.1422 6.38666 4.042 6.41522 3.944 6.44971L3.71 6.55232C3.61899 6.59033 3.53079 6.63413 3.446 6.68343L3.23 6.88295L3.008 7.05966C2.942 7.11667 2.876 7.16797 2.816 7.23068C2.756 7.29338 2.69 7.37319 2.63 7.4416C2.57 7.51 2.522 7.57271 2.474 7.64681C2.426 7.72092 2.378 7.81213 2.33 7.89764C2.282 7.98314 2.252 8.04015 2.222 8.10856C2.17787 8.21427 2.14177 8.32286 2.114 8.43348C2.114 8.49619 2.072 8.5589 2.06 8.6216C2.02265 8.8 2.00257 8.98127 2 9.16315C2.00281 9.33719 2.02088 9.5107 2.054 9.6819C2.054 9.7389 2.084 9.7902 2.096 9.84721C2.12566 9.9592 2.16171 10.0696 2.204 10.1778L2.276 10.3432C2.32882 10.4531 2.38894 10.5597 2.456 10.6624L2.54 10.7878C2.54863 10.8038 2.55867 10.819 2.57 10.8334L2.6 10.8733C2.87944 11.2273 3.24179 11.5146 3.65836 11.7125C4.07493 11.9104 4.53426 12.0134 5 12.0134C5.00134 11.7115 5.12865 11.4225 5.354 11.2096C5.57801 10.9955 5.88225 10.8746 6.2 10.8733C6.41106 10.8714 6.61862 10.9247 6.8 11.0272V9.16315C6.8 8.86078 6.92643 8.57079 7.15147 8.35698C7.37652 8.14317 7.68174 8.02305 8 8.02305C8.31826 8.02305 8.62348 8.14317 8.84853 8.35698C9.07357 8.57079 9.2 8.86078 9.2 9.16315V11.0842C9.3823 10.9837 9.58924 10.9307 9.8 10.9303C10.125 10.9332 10.4357 11.0582 10.664 11.278C10.866 11.4764 10.9854 11.7377 11 12.0134C11.4657 12.0134 11.9251 11.9104 12.3416 11.7125C12.7582 11.5146 13.1206 11.2273 13.4 10.8733L13.43 10.8448C13.4413 10.8304 13.4514 10.8152 13.46 10.7992L13.544 10.6738C13.6111 10.5711 13.6712 10.4645 13.724 10.3546L13.796 10.1892C13.8383 10.081 13.8743 9.9706 13.904 9.85861C13.904 9.80161 13.934 9.7503 13.946 9.6933C13.9798 9.51836 13.9979 9.341 14 9.16315C13.9993 8.97174 13.9792 8.78084 13.94 8.5931Z" fill="#F4F4F4"/>
<rect x="4.72726" y="7.43445" width="6.54545" height="4.57905" fill="#F4F4F4"/>
<path d="M14.552 9.67439C14.552 9.62422 14.5232 9.57406 14.5088 9.52389C14.4866 9.43539 14.4577 9.34852 14.4224 9.26395C14.3984 9.20923 14.3648 9.1545 14.336 9.09521C14.3072 9.03593 14.264 8.9584 14.2208 8.89456C14.1776 8.83071 14.12 8.79879 14.12 8.76231C14.12 8.72582 14.024 8.64829 13.9712 8.59357C13.9184 8.53884 13.8704 8.50236 13.8176 8.45676L13.64 8.30626L13.4672 8.19681C13.3994 8.15737 13.3288 8.12233 13.256 8.09192L13.0688 8.00984C12.9904 7.98225 12.9102 7.9594 12.8288 7.94143C12.7643 7.9234 12.6985 7.90969 12.632 7.90039H12.5456C12.3607 7.3528 11.9989 6.87448 11.5116 6.53335C11.0243 6.19222 10.4363 6.00563 9.83106 6.00008C9.22581 5.99453 8.63409 6.17029 8.13996 6.50241C7.64582 6.83454 7.27439 7.30613 7.0784 7.85022H6.992C6.92547 7.85952 6.85971 7.87324 6.7952 7.89127C6.71376 7.90924 6.6336 7.93208 6.5552 7.95967L6.368 8.04176C6.2952 8.07217 6.22463 8.10721 6.1568 8.14665L5.984 8.30626L5.8064 8.44764C5.7536 8.49324 5.7008 8.53428 5.6528 8.58445C5.6048 8.63461 5.552 8.69846 5.504 8.75318C5.456 8.80791 5.4176 8.85807 5.3792 8.91736C5.3408 8.97664 5.3024 9.04961 5.264 9.11802C5.2256 9.18642 5.2016 9.23203 5.1776 9.28675C5.14229 9.37132 5.11342 9.4582 5.0912 9.5467C5.0912 9.59686 5.0576 9.64702 5.048 9.69719C5.01812 9.83991 5.00206 9.98493 5 10.1304C5.00225 10.2697 5.0167 10.4085 5.0432 10.5454C5.0432 10.591 5.0672 10.6321 5.0768 10.6777C5.10053 10.7673 5.12937 10.8556 5.1632 10.9422L5.2208 11.0744C5.26305 11.1624 5.31115 11.2477 5.3648 11.3298L5.432 11.4301C5.43891 11.4429 5.44693 11.4551 5.456 11.4666L5.48 11.4986C5.70355 11.7817 5.99343 12.0116 6.32669 12.1699C6.65994 12.3282 7.02741 12.4106 7.4 12.4106C7.40107 12.1691 7.50292 11.9379 7.6832 11.7676C7.86241 11.5963 8.1058 11.4996 8.36 11.4986C8.52885 11.497 8.69489 11.5396 8.84 11.6217V10.1304C8.84 9.88853 8.94114 9.65654 9.12118 9.48549C9.30121 9.31444 9.54539 9.21835 9.8 9.21835C10.0546 9.21835 10.2988 9.31444 10.4788 9.48549C10.6589 9.65654 10.76 9.88853 10.76 10.1304V11.6673C10.9058 11.5869 11.0714 11.5444 11.24 11.5442C11.5 11.5465 11.7485 11.6465 11.9312 11.8223C12.0928 11.9811 12.1883 12.1901 12.2 12.4106C12.5726 12.4106 12.9401 12.3282 13.2733 12.1699C13.6066 12.0116 13.8964 11.7817 14.12 11.4986L14.144 11.4757C14.1531 11.4643 14.1611 11.452 14.168 11.4393L14.2352 11.3389C14.2888 11.2568 14.3369 11.1715 14.3792 11.0836L14.4368 10.9513C14.4706 10.8647 14.4995 10.7764 14.5232 10.6868C14.5232 10.6412 14.5472 10.6002 14.5568 10.5545C14.5838 10.4146 14.5983 10.2727 14.6 10.1304C14.5994 9.9773 14.5834 9.82458 14.552 9.67439Z" fill="#E0E0E0"/>
<rect x="7.18182" y="8.74744" width="5.23636" height="3.66325" fill="#E0E0E0"/>
<path d="M10.7277 1.02827C10.7277 1.02827 10.8541 3.57159 11.6775 4.60807C12.5008 5.64455 14.4916 5.76644 14.4916 5.76644C14.4916 5.76644 12.5029 5.9185 11.6954 6.96733C10.8878 8.01617 10.8 10.5611 10.8 10.5611C10.8 10.5611 10.6736 8.0178 9.85023 6.98132C9.02689 5.94484 7.03613 5.82295 7.03613 5.82295C7.03613 5.82295 9.02481 5.67089 9.83234 4.62206C10.6399 3.57322 10.7277 1.02827 10.7277 1.02827Z" fill="#E4C041"/>
</svg>
